<svg width="67" height="24" viewBox="0 0 67 24" fill="none" xmlns="http://www.w3.org/2000/svg">
<path d="M16 8V16M12 11V16M8 14V16M6 20H18C18.5304 20 19.0391 19.7893 19.4142 19.4142C19.7893 19.0391 20 18.5304 20 18V6C20 5.46957 19.7893 4.96086 19.4142 4.58579C19.0391 4.21071 18.5304 4 18 4H6C5.46957 4 4.96086 4.21071 4.58579 4.58579C4.21071 4.96086 4 5.46957 4 6V18C4 18.5304 4.21071 19.0391 4.58579 19.4142C4.96086 19.7893 5.46957 20 6 20Z" stroke="white" stroke-opacity="0.8" stroke-width="2" stroke-linecap="round" stroke-linejoin="round"/>
<path d="M55.4561 4C56.0877 4 56.2281 4.10526 56.2982 4.4386L56.386 4.84211C56.5439 5.59649 57.0175 6.26316 57.8246 6.70175C57.9649 6.77193 58.0351 6.82456 58.1228 6.87719C58.9123 7.38597 59.7368 7.45614 60.4561 7.24561L60.6316 7.17544C61.1754 7 61.4211 7.08772 61.6842 7.57895L62.1754 8.40351C62.4737 8.92982 62.4561 9.10526 62.1754 9.35088L61.8421 9.68421C61.3158 10.1754 60.9825 10.8772 61 11.7719C61 11.9123 61 12.0702 61 12.2105C60.9649 13.0175 61.2456 13.7719 61.8421 14.3333L62 14.4737C62.4211 14.8596 62.4561 15.0877 62.1579 15.5965L61.7018 16.4211C61.4035 16.9298 61.2456 17 60.8596 16.8772L60.4386 16.7544C59.7368 16.5439 58.9298 16.614 58.1404 17.1228C58.0702 17.1754 58 17.2105 57.8246 17.2982C57.0175 17.7368 56.5614 18.386 56.386 19.1228L56.3509 19.3158C56.2456 19.8596 56.0526 20 55.4561 20H54.5439C53.9298 20 53.7895 19.8947 53.7193 19.5263L53.5965 19.0877C53.4386 18.4035 52.9649 17.7368 52.1579 17.2807C52.0351 17.2281 51.9649 17.1754 51.8246 17.1053C51.0702 16.614 50.2456 16.5439 49.5439 16.7544L49.3684 16.8246C48.8246 17 48.5789 16.9123 48.3158 16.4211L47.8246 15.5965C47.5263 15.0702 47.5439 14.8947 47.8246 14.6491L48.1579 14.3158C48.6842 13.8246 49.0175 13.1228 49 12.2281C49 12.0877 49 11.9298 49 11.7895C49.0351 10.9825 48.7544 10.2281 48.1579 9.66667L48 9.52632C47.5789 9.14035 47.5439 8.91228 47.8421 8.40351L48.2982 7.57895C48.614 7.07018 48.7719 6.98246 49.1228 7.08772L49.5263 7.22807C50.2456 7.45614 51.0877 7.38597 51.8772 6.87719C51.9298 6.8421 52.0351 6.78947 52.193 6.70175C52.9825 6.26316 53.4561 5.59649 53.614 4.85965L53.6491 4.68421C53.7544 4.14035 53.9474 4 54.5439 4H55.4561ZM55.4561 2H54.5439C53.1579 2 51.9825 2.89474 51.6842 4.29824L51.6491 4.47368C51.5965 4.70175 51.5439 4.77193 51.2105 4.94737C51.1053 5.01754 50.9123 5.12281 50.7719 5.21053C50.4912 5.38596 50.4035 5.40351 50.1404 5.33333L49.7368 5.19298C48.614 4.84211 47.3158 5.31579 46.5789 6.59649L46.0877 7.42105C45.4035 8.63158 45.6316 10.0526 46.6491 11L46.7895 11.1404C47.0175 11.3509 47.0175 11.386 47 11.7193C47 11.8947 47 12.0877 47 12.2632C47.0175 12.614 47 12.6667 46.7895 12.8772L46.4561 13.1754C45.614 13.9649 45.3684 15.3158 46.1053 16.5789L46.5614 17.4035C47.2632 18.6316 48.6491 19.1404 49.9649 18.7193L50.1404 18.6842C50.4035 18.5965 50.4737 18.614 50.7719 18.7895C50.9123 18.8947 51.0702 18.9825 51.2281 19.0526C51.5439 19.2281 51.5965 19.2982 51.6667 19.5789L51.7544 19.9825C52.0175 21.0877 53.0526 22 54.5439 22H55.4561C56.8421 22 58.0175 21.1053 58.3158 19.7018L58.3509 19.5439C58.4035 19.2807 58.4561 19.2281 58.7719 19.0526C58.9123 18.9825 59.1053 18.8772 59.2456 18.7895C59.5439 18.614 59.614 18.5965 59.8772 18.6842L60.2982 18.807C61.386 19.1404 62.6842 18.6842 63.4211 17.4035L63.9123 16.5789C64.5965 15.3684 64.3684 13.9474 63.3509 13L63.2105 12.8596C62.9825 12.6491 62.9825 12.614 63 12.2807C63 12.1053 63 11.9123 63 11.7368C62.9825 11.386 63 11.3333 63.2105 11.1228L63.5439 10.8246C64.386 10.0351 64.6316 8.68421 63.8947 7.42105L63.4386 6.59649C62.7368 5.36842 61.3509 4.85965 60.0351 5.2807L59.8596 5.31579C59.614 5.40351 59.5263 5.38596 59.2281 5.21053C59.0702 5.10526 58.9123 5.01754 58.807 4.94737C58.4561 4.75439 58.4035 4.7193 58.3509 4.45614L58.2632 4.01754C58.0175 2.89474 56.9474 2 55.4561 2ZM51 12C51 14.2105 52.7895 16 55 16C57.2105 16 59 14.2105 59 12C59 9.78947 57.2105 8 55 8C52.7895 8 51 9.78947 51 12ZM53 12C53 10.7719 53.7719 10 55 10C56.2281 10 57 10.7719 57 12C57 13.2281 56.2281 14 55 14C53.7719 14 53 13.2281 53 12Z" fill="white" fill-opacity="0.8"/>
</svg>
